<svg width="64" height="64" viewBox="0 0 128 128" fill="none" xmlns="http://www.w3.org/2000/svg">
  <defs>
    <linearGradient id="icon-bg" x1="16" y1="10" x2="114" y2="118" gradientUnits="userSpaceOnUse">
      <stop stop-color="#0B1224"/>
      <stop offset="0.58" stop-color="#101C3A"/>
      <stop offset="1" stop-color="#172554"/>
    </linearGradient>
    <linearGradient id="icon-top" x1="34" y1="30" x2="96" y2="58" gradientUnits="userSpaceOnUse">
      <stop stop-color="#4338FF"/>
      <stop offset="0.48" stop-color="#2563FF"/>
      <stop offset="1" stop-color="#22D3EE"/>
    </linearGradient>
    <linearGradient id="icon-left" x1="26" y1="50" x2="66" y2="102" gradientUnits="userSpaceOnUse">
      <stop stop-color="#7C3AED"/>
      <stop offset="1" stop-color="#4338FF"/>
    </linearGradient>
    <linearGradient id="icon-right" x1="68" y1="54" x2="102" y2="100" gradientUnits="userSpaceOnUse">
      <stop stop-color="#2563FF"/>
      <stop offset="1" stop-color="#22D3EE"/>
    </linearGradient>
  </defs>
  <rect x="6" y="6" width="116" height="116" rx="30" fill="url(#icon-bg)"/>
  <path d="M64 26L94 44L64 62L34 44L64 26Z" fill="url(#icon-top)"/>
  <path d="M30 50L58 66.8V100L30 83.2V50Z" fill="url(#icon-left)"/>
  <path d="M70 66.8L98 50V83.2L70 100V66.8Z" fill="url(#icon-right)"/>
  <path d="M64 26L94 44L64 62L34 44L64 26Z" stroke="rgba(255,255,255,0.12)" stroke-width="1.6"/>
  <path d="M30 50L58 66.8V100L30 83.2V50Z" stroke="rgba(255,255,255,0.12)" stroke-width="1.6"/>
  <path d="M70 66.8L98 50V83.2L70 100V66.8Z" stroke="rgba(255,255,255,0.12)" stroke-width="1.6"/>
</svg>
