<svg width="128" height="128" viewBox="0 0 128 128" fill="none" xmlns="http://www.w3.org/2000/svg">
  <defs>
    <linearGradient id="spazio-bg" x1="18" y1="14" x2="110" y2="118" gradientUnits="userSpaceOnUse">
      <stop stop-color="#0C1630"/>
      <stop offset="0.52" stop-color="#133A78"/>
      <stop offset="1" stop-color="#0A84FF"/>
    </linearGradient>
    <linearGradient id="spazio-stroke" x1="38" y1="32" x2="90" y2="102" gradientUnits="userSpaceOnUse">
      <stop stop-color="#F7FBFF"/>
      <stop offset="0.6" stop-color="#B8DCFF"/>
      <stop offset="1" stop-color="#EAF5FF"/>
    </linearGradient>
    <radialGradient id="spazio-glow" cx="0" cy="0" r="1" gradientUnits="userSpaceOnUse" gradientTransform="translate(92 28) rotate(116.565) scale(98.386 84.9159)">
      <stop stop-color="white" stop-opacity="0.28"/>
      <stop offset="1" stop-color="white" stop-opacity="0"/>
    </radialGradient>
  </defs>
  <rect x="6" y="6" width="116" height="116" rx="32" fill="url(#spazio-bg)"/>
  <rect x="6" y="6" width="116" height="116" rx="32" fill="url(#spazio-glow)"/>
  <rect x="20" y="20" width="88" height="88" rx="28" fill="rgba(255,255,255,0.08)" stroke="rgba(255,255,255,0.18)"/>
  <path d="M86 36H58C46.9543 36 40 42.7157 40 52C40 60.0634 45.2788 65.4084 55.8365 68.4883L68.2367 72.1048C79.5969 75.4185 86 80.5338 86 89.5C86 98.8698 78.7053 104 66.2759 104H42" stroke="url(#spazio-stroke)" stroke-width="12" stroke-linecap="round" stroke-linejoin="round"/>
  <circle cx="90" cy="38" r="6" fill="#F7FBFF"/>
  <circle cx="36" cy="92" r="4" fill="#A7DBFF"/>
</svg>
